<svg viewBox="0 0 256 256" xmlns="http://www.w3.org/2000/svg" version="1.1"><path d="m16 0h16v16h-16z" fill="#52174f"/><path d="m32 0h16v16h-16z" fill="#a1716f"/><path d="m48 0h16v16h-16z" fill="#f3c3c1"/><path d="m64 0h16v16h-16z" fill="#eec99c"/><path d="m80 0h16v16h-16z" fill="#feddb0"/><path d="m96 0h16v16h-16z" fill="#ffddad"/><path d="m112 0h16v16h-16z" fill="#fdd9a9"/><path d="m128 0h16v16h-16z" fill="#fdd9a9"/><path d="m144 0h16v16h-16z" fill="#ffdfb0"/><path d="m160 0h16v16h-16z" fill="#ffd5ab"/><path d="m176 0h16v16h-16z" fill="#f5cba1"/><path d="m192 0h16v16h-16z" fill="#f5c1c5"/><path d="m208 0h16v16h-16z" fill="#774347"/><path d="m224 0h16v16h-16z" fill="#551353"/><path d="m0 16h16v16h-16z" fill="#51164e"/><path d="m16 16h16v16h-16z" fill="#652a62"/><path d="m32 16h16v16h-16z" fill="#fed5d3"/><path d="m48 16h16v16h-16z" fill="#ffd1d1"/><path d="m64 16h16v16h-16z" fill="#fedcae"/><path d="m80 16h16v16h-16z" fill="#fbd6a9"/><path d="m96 16h16v16h-16z" fill="#b38f5f"/><path d="m112 16h16v16h-16z" fill="#b08c5c"/><path d="m128 16h16v16h-16z" fill="#b08e5e"/><path d="m144 16h16v16h-16z" fill="#815b2c"/><path d="m160 16h16v16h-16z" fill="#fcd2a8"/><path d="m176 16h16v16h-16z" fill="#ffd8ad"/><path d="m192 16h16v16h-16z" fill="#fdd3d5"/><path d="m208 16h16v16h-16z" fill="#fecdd1"/><path d="m224 16h16v16h-16z" fill="#733171"/><path d="m240 16h16v16h-16z" fill="#531252"/><path d="m0 32h16v16h-16z" fill="#a17574"/><path d="m16 32h16v16h-16z" fill="#fccfca"/><path d="m32 32h16v16h-16z" fill="#fcd4b0"/><path d="m48 32h16v16h-16z" fill="#fdd8ae"/><path d="m64 32h16v16h-16z" fill="#fad69a"/><path d="m80 32h16v16h-16z" fill="#c3a164"/><path d="m96 32h16v16h-16z" fill="#a9814d"/><path d="m112 32h16v16h-16z" fill="#a8834c"/><path d="m128 32h16v16h-16z" fill="#8a6530"/><path d="m144 32h16v16h-16z" fill="#88632e"/><path d="m160 32h16v16h-16z" fill="#8d662b"/><path d="m176 32h16v16h-16z" fill="#ffda9f"/><path d="m192 32h16v16h-16z" fill="#7c4e2d"/><path d="m208 32h16v16h-16z" fill="#825534"/><path d="m224 32h16v16h-16z" fill="#ffd1d4"/><path d="m240 32h16v16h-16z" fill="#935e64"/><path d="m0 48h16v16h-16z" fill="#f2c5c2"/><path d="m16 48h16v16h-16z" fill="#ffd3d0"/><path d="m32 48h16v16h-16z" fill="#ffe0ba"/><path d="m48 48h16v16h-16z" fill="#ffe4c0"/><path d="m64 48h16v16h-16z" fill="#ffdfa4"/><path d="m80 48h16v16h-16z" fill="#c39c63"/><path d="m96 48h16v16h-16z" fill="#ac8752"/><path d="m112 48h16v16h-16z" fill="#ffdaa5"/><path d="m128 48h16v16h-16z" fill="#ffdea8"/><path d="m144 48h16v16h-16z" fill="#855d2a"/><path d="m160 48h16v16h-16z" fill="#fedba5"/><path d="m176 48h16v16h-16z" fill="#78511a"/><path d="m192 48h16v16h-16z" fill="#8b5e3d"/><path d="m208 48h16v16h-16z" fill="#7d522f"/><path d="m224 48h16v16h-16z" fill="#ffd2d5"/><path d="m240 48h16v16h-16z" fill="#f2bbc1"/><path d="m0 64h16v16h-16z" fill="#f0cea1"/><path d="m16 64h16v16h-16z" fill="#f2d1a4"/><path d="m32 64h16v16h-16z" fill="#ffdfa2"/><path d="m48 64h16v16h-16z" fill="#fddfa1"/><path d="m64 64h16v16h-16z" fill="#d6b373"/><path d="m80 64h16v16h-16z" fill="#b29050"/><path d="m96 64h16v16h-16z" fill="#ad864d"/><path d="m112 64h16v16h-16z" fill="#ffd9a0"/><path d="m128 64h16v16h-16z" fill="#ffdaa3"/><path d="m144 64h16v16h-16z" fill="#fedaa0"/><path d="m160 64h16v16h-16z" fill="#855f1e"/><path d="m176 64h16v16h-16z" fill="#886223"/><path d="m192 64h16v16h-16z" fill="#855c24"/><path d="m208 64h16v16h-16z" fill="#ffd8a1"/><path d="m224 64h16v16h-16z" fill="#f1ca9f"/><path d="m240 64h16v16h-16z" fill="#f3cca1"/><path d="m0 80h16v16h-16z" fill="#fddcaf"/><path d="m16 80h16v16h-16z" fill="#fddbad"/><path d="m32 80h16v16h-16z" fill="#ffdea1"/><path d="m48 80h16v16h-16z" fill="#f8d49a"/><path d="m64 80h16v16h-16z" fill="#d5b374"/><path d="m80 80h16v16h-16z" fill="#ba9455"/><path d="m96 80h16v16h-16z" fill="#fcd7a0"/><path d="m112 80h16v16h-16z" fill="#ffdca6"/><path d="m128 80h16v16h-16z" fill="#fbd39f"/><path d="m144 80h16v16h-16z" fill="#825923"/><path d="m160 80h16v16h-16z" fill="#8c6627"/><path d="m176 80h16v16h-16z" fill="#7f5719"/><path d="m192 80h16v16h-16z" fill="#d1ad71"/><path d="m208 80h16v16h-16z" fill="#ffd89d"/><path d="m224 80h16v16h-16z" fill="#f0c99e"/><path d="m240 80h16v16h-16z" fill="#fedcaf"/><path d="m0 96h16v16h-16z" fill="#fadbac"/><path d="m16 96h16v16h-16z" fill="#fcddaf"/><path d="m32 96h16v16h-16z" fill="#fad9a4"/><path d="m48 96h16v16h-16z" fill="#fedda8"/><path d="m64 96h16v16h-16z" fill="#be9964"/><path d="m80 96h16v16h-16z" fill="#be9b65"/><path d="m96 96h16v16h-16z" fill="#ffdfb0"/><path d="m112 96h16v16h-16z" fill="#ffd6a6"/><path d="m128 96h16v16h-16z" fill="#825828"/><path d="m144 96h16v16h-16z" fill="#906837"/><path d="m160 96h16v16h-16z" fill="#784f19"/><path d="m176 96h16v16h-16z" fill="#c39c65"/><path d="m192 96h16v16h-16z" fill="#cba872"/><path d="m208 96h16v16h-16z" fill="#d0af79"/><path d="m224 96h16v16h-16z" fill="#fddbab"/><path d="m240 96h16v16h-16z" fill="#fcdcab"/><path d="m0 112h16v16h-16z" fill="#fddeaf"/><path d="m16 112h16v16h-16z" fill="#fbdcad"/><path d="m32 112h16v16h-16z" fill="#ffdea9"/><path d="m48 112h16v16h-16z" fill="#fad9a3"/><path d="m64 112h16v16h-16z" fill="#bb9661"/><path d="m80 112h16v16h-16z" fill="#cca772"/><path d="m96 112h16v16h-16z" fill="#b28858"/><path d="m112 112h16v16h-16z" fill="#825828"/><path d="m128 112h16v16h-16z" fill="#8b612f"/><path d="m144 112h16v16h-16z" fill="#7d5323"/><path d="m160 112h16v16h-16z" fill="#ffdaa3"/><path d="m176 112h16v16h-16z" fill="#fcd59e"/><path d="m192 112h16v16h-16z" fill="#c3a06a"/><path d="m208 112h16v16h-16z" fill="#d1ae78"/><path d="m224 112h16v16h-16z" fill="#fde1b1"/><path d="m240 112h16v16h-16z" fill="#f5d3a3"/><path d="m0 128h16v16h-16z" fill="#fee2b2"/><path d="m16 128h16v16h-16z" fill="#f7d8a9"/><path d="m32 128h16v16h-16z" fill="#603f09"/><path d="m48 128h16v16h-16z" fill="#5b3a04"/><path d="m64 128h16v16h-16z" fill="#ffdda7"/><path d="m80 128h16v16h-16z" fill="#b28d58"/><path d="m96 128h16v16h-16z" fill="#7f5525"/><path d="m112 128h16v16h-16z" fill="#8c6230"/><path d="m128 128h16v16h-16z" fill="#7c5222"/><path d="m144 128h16v16h-16z" fill="#ffddad"/><path d="m160 128h16v16h-16z" fill="#ffdaa3"/><path d="m176 128h16v16h-16z" fill="#fed7a0"/><path d="m192 128h16v16h-16z" fill="#bf9e69"/><path d="m208 128h16v16h-16z" fill="#b3925c"/><path d="m224 128h16v16h-16z" fill="#fee4b3"/><path d="m240 128h16v16h-16z" fill="#fcdaaa"/><path d="m0 144h16v16h-16z" fill="#fadbac"/><path d="m16 144h16v16h-16z" fill="#fedfb0"/><path d="m32 144h16v16h-16z" fill="#ffe8b2"/><path d="m48 144h16v16h-16z" fill="#5c3c03"/><path d="m64 144h16v16h-16z" fill="#663e0a"/><path d="m80 144h16v16h-16z" fill="#5e3905"/><path d="m96 144h16v16h-16z" fill="#8e6233"/><path d="m112 144h16v16h-16z" fill="#795120"/><path d="m128 144h16v16h-16z" fill="#ffddad"/><path d="m144 144h16v16h-16z" fill="#fed6a5"/><path d="m160 144h16v16h-16z" fill="#fad59e"/><path d="m176 144h16v16h-16z" fill="#c7a069"/><path d="m192 144h16v16h-16z" fill="#b3935a"/><path d="m208 144h16v16h-16z" fill="#aa8751"/><path d="m224 144h16v16h-16z" fill="#f5d7a5"/><path d="m240 144h16v16h-16z" fill="#ffe8b6"/><path d="m0 160h16v16h-16z" fill="#ffdfac"/><path d="m16 160h16v16h-16z" fill="#f8d6a6"/><path d="m32 160h16v16h-16z" fill="#ffdf9f"/><path d="m48 160h16v16h-16z" fill="#fad89b"/><path d="m64 160h16v16h-16z" fill="#734d0c"/><path d="m80 160h16v16h-16z" fill="#5f3f02"/><path d="m96 160h16v16h-16z" fill="#643c08"/><path d="m112 160h16v16h-16z" fill="#ffdaa6"/><path d="m128 160h16v16h-16z" fill="#fdd5a2"/><path d="m144 160h16v16h-16z" fill="#8c6732"/><path d="m160 160h16v16h-16z" fill="#c19e5e"/><path d="m176 160h16v16h-16z" fill="#b49554"/><path d="m192 160h16v16h-16z" fill="#ab874b"/><path d="m208 160h16v16h-16z" fill="#fddb9e"/><path d="m224 160h16v16h-16z" fill="#f9d7a9"/><path d="m240 160h16v16h-16z" fill="#fad8aa"/><path d="m0 176h16v16h-16z" fill="#f1d1a0"/><path d="m16 176h16v16h-16z" fill="#fbdbaa"/><path d="m32 176h16v16h-16z" fill="#f8d697"/><path d="m48 176h16v16h-16z" fill="#6d4b0c"/><path d="m64 176h16v16h-16z" fill="#a07c3e"/><path d="m80 176h16v16h-16z" fill="#6f4c0c"/><path d="m96 176h16v16h-16z" fill="#643b07"/><path d="m112 176h16v16h-16z" fill="#fed6a2"/><path d="m128 176h16v16h-16z" fill="#8a632c"/><path d="m144 176h16v16h-16z" fill="#89612d"/><path d="m160 176h16v16h-16z" fill="#8a6727"/><path d="m176 176h16v16h-16z" fill="#b08a4c"/><path d="m192 176h16v16h-16z" fill="#fad89b"/><path d="m208 176h16v16h-16z" fill="#ffdfa2"/><path d="m224 176h16v16h-16z" fill="#fddeaf"/><path d="m240 176h16v16h-16z" fill="#fddbad"/><path d="m0 192h16v16h-16z" fill="#eabfb9"/><path d="m16 192h16v16h-16z" fill="#feddd4"/><path d="m32 192h16v16h-16z" fill="#70491e"/><path d="m48 192h16v16h-16z" fill="#9c754c"/><path d="m64 192h16v16h-16z" fill="#6d4a0a"/><path d="m80 192h16v16h-16z" fill="#ffde9f"/><path d="m96 192h16v16h-16z" fill="#704d17"/><path d="m112 192h16v16h-16z" fill="#66410d"/><path d="m128 192h16v16h-16z" fill="#ffd9a8"/><path d="m144 192h16v16h-16z" fill="#87632f"/><path d="m160 192h16v16h-16z" fill="#fcd89c"/><path d="m176 192h16v16h-16z" fill="#f5d394"/><path d="m192 192h16v16h-16z" fill="#ffddb7"/><path d="m208 192h16v16h-16z" fill="#fcd6af"/><path d="m224 192h16v16h-16z" fill="#ffdcd8"/><path d="m240 192h16v16h-16z" fill="#ffd9d6"/><path d="m0 208h16v16h-16z" fill="#90655e"/><path d="m16 208h16v16h-16z" fill="#f1c6c0"/><path d="m32 208h16v16h-16z" fill="#724b20"/><path d="m48 208h16v16h-16z" fill="#744d22"/><path d="m64 208h16v16h-16z" fill="#fbd597"/><path d="m80 208h16v16h-16z" fill="#ffe2a4"/><path d="m96 208h16v16h-16z" fill="#fad39c"/><path d="m112 208h16v16h-16z" fill="#603b06"/><path d="m128 208h16v16h-16z" fill="#fdd8a4"/><path d="m144 208h16v16h-16z" fill="#ffd8a4"/><path d="m160 208h16v16h-16z" fill="#ffdda0"/><path d="m176 208h16v16h-16z" fill="#ffdda3"/><path d="m192 208h16v16h-16z" fill="#fbd8ae"/><path d="m208 208h16v16h-16z" fill="#f9d3ac"/><path d="m224 208h16v16h-16z" fill="#ffdedc"/><path d="m240 208h16v16h-16z" fill="#9d7170"/><path d="m0 224h16v16h-16z" fill="#4a1144"/><path d="m16 224h16v16h-16z" fill="#a36999"/><path d="m32 224h16v16h-16z" fill="#ffd9d2"/><path d="m48 224h16v16h-16z" fill="#f4c5bd"/><path d="m64 224h16v16h-16z" fill="#fdd7a8"/><path d="m80 224h16v16h-16z" fill="#f5cfa0"/><path d="m96 224h16v16h-16z" fill="#ffd9ac"/><path d="m112 224h16v16h-16z" fill="#fed5a9"/><path d="m128 224h16v16h-16z" fill="#ffdcaf"/><path d="m144 224h16v16h-16z" fill="#fbd6aa"/><path d="m160 224h16v16h-16z" fill="#fad3aa"/><path d="m176 224h16v16h-16z" fill="#fad3a8"/><path d="m192 224h16v16h-16z" fill="#ffd1d1"/><path d="m208 224h16v16h-16z" fill="#f7cac7"/><path d="m224 224h16v16h-16z" fill="#8d568f"/><path d="m240 224h16v16h-16z" fill="#4a134a"/><path d="m16 240h16v16h-16z" fill="#4b1344"/><path d="m32 240h16v16h-16z" fill="#9a6b65"/><path d="m48 240h16v16h-16z" fill="#ffdad1"/><path d="m64 240h16v16h-16z" fill="#ffe0b1"/><path d="m80 240h16v16h-16z" fill="#ffdaab"/><path d="m96 240h16v16h-16z" fill="#ffdcac"/><path d="m112 240h16v16h-16z" fill="#ffe1b3"/><path d="m128 240h16v16h-16z" fill="#ffdfb0"/><path d="m144 240h16v16h-16z" fill="#fed8ab"/><path d="m160 240h16v16h-16z" fill="#fcd5aa"/><path d="m176 240h16v16h-16z" fill="#fed7ac"/><path d="m192 240h16v16h-16z" fill="#f0c2c2"/><path d="m208 240h16v16h-16z" fill="#906262"/><path d="m224 240h16v16h-16z" fill="#4b144b"/></svg>