<svg viewBox="0 0 256 256" xmlns="http://www.w3.org/2000/svg" version="1.1"><path d="m16 0h16v16h-16z" fill="#4d1264"></path><path d="m32 0h16v16h-16z" fill="#9a6e6d"></path><path d="m48 0h16v16h-16z" fill="#f1c5c4"></path><path d="m64 0h16v16h-16z" fill="#eece9f"></path><path d="m80 0h16v16h-16z" fill="#ffdeb1"></path><path d="m96 0h16v16h-16z" fill="#ffdaa6"></path><path d="m112 0h16v16h-16z" fill="#ffdaa6"></path><path d="m128 0h16v16h-16z" fill="#ffdaa6"></path><path d="m144 0h16v16h-16z" fill="#fedcac"></path><path d="m160 0h16v16h-16z" fill="#ffd2a8"></path><path d="m176 0h16v16h-16z" fill="#ffe0aa"></path><path d="m192 0h16v16h-16z" fill="#f3bfc3"></path><path d="m208 0h16v16h-16z" fill="#784448"></path><path d="m224 0h16v16h-16z" fill="#4b0961"></path><path d="m0 16h16v16h-16z" fill="#4a0f61"></path><path d="m16 16h16v16h-16z" fill="#5e2375"></path><path d="m32 16h16v16h-16z" fill="#fed8d7"></path><path d="m48 16h16v16h-16z" fill="#f7d6a9"></path><path d="m64 16h16v16h-16z" fill="#fcdeac"></path><path d="m80 16h16v16h-16z" fill="#f7d6a9"></path><path d="m96 16h16v16h-16z" fill="#fedda8"></path><path d="m112 16h16v16h-16z" fill="#ffdaa6"></path><path d="m128 16h16v16h-16z" fill="#fecf99"></path><path d="m144 16h16v16h-16z" fill="#feca90"></path><path d="m160 16h16v16h-16z" fill="#fdd2a8"></path><path d="m176 16h16v16h-16z" fill="#fddbad"></path><path d="m192 16h16v16h-16z" fill="#ffc8ce"></path><path d="m208 16h16v16h-16z" fill="#fdcbcc"></path><path d="m224 16h16v16h-16z" fill="#7b3991"></path><path d="m240 16h16v16h-16z" fill="#4a0862"></path><path d="m0 32h16v16h-16z" fill="#a07469"></path><path d="m16 32h16v16h-16z" fill="#f7c4cd"></path><path d="m32 32h16v16h-16z" fill="#fc9c09"></path><path d="m48 32h16v16h-16z" fill="#f5b418"></path><path d="m64 32h16v16h-16z" fill="#d2a32f"></path><path d="m80 32h16v16h-16z" fill="#f2c687"></path><path d="m96 32h16v16h-16z" fill="#fddca7"></path><path d="m112 32h16v16h-16z" fill="#866941"></path><path d="m128 32h16v16h-16z" fill="#ffdaa6"></path><path d="m144 32h16v16h-16z" fill="#ffd098"></path><path d="m160 32h16v16h-16z" fill="#ffdaa6"></path><path d="m176 32h16v16h-16z" fill="#ffdaa6"></path><path d="m192 32h16v16h-16z" fill="#71552d"></path><path d="m208 32h16v16h-16z" fill="#ffd7a3"></path><path d="m224 32h16v16h-16z" fill="#ffdcaa"></path><path d="m240 32h16v16h-16z" fill="#925f66"></path><path d="m0 48h16v16h-16z" fill="#f3c7be"></path><path d="m16 48h16v16h-16z" fill="#fed8d7"></path><path d="m32 48h16v16h-16z" fill="#f7b61c"></path><path d="m48 48h16v16h-16z" fill="#cd8e0d"></path><path d="m64 48h16v16h-16z" fill="#e7c48c"></path><path d="m80 48h16v16h-16z" fill="#f7d6a3"></path><path d="m96 48h16v16h-16z" fill="#fedaa8"></path><path d="m112 48h16v16h-16z" fill="#fed9a5"></path><path d="m128 48h16v16h-16z" fill="#5b411c"></path><path d="m144 48h16v16h-16z" fill="#ffdaa6"></path><path d="m160 48h16v16h-16z" fill="#ffdaa6"></path><path d="m176 48h16v16h-16z" fill="#5c4420"></path><path d="m192 48h16v16h-16z" fill="#4a3313"></path><path d="m208 48h16v16h-16z" fill="#ffdaa6"></path><path d="m224 48h16v16h-16z" fill="#72531d"></path><path d="m240 48h16v16h-16z" fill="#f7c4cd"></path><path d="m0 64h16v16h-16z" fill="#efcd8e"></path><path d="m16 64h16v16h-16z" fill="#fed3a0"></path><path d="m32 64h16v16h-16z" fill="#d5a330"></path><path d="m48 64h16v16h-16z" fill="#eec283"></path><path d="m64 64h16v16h-16z" fill="#a2610d"></path><path d="m80 64h16v16h-16z" fill="#ffd6a4"></path><path d="m96 64h16v16h-16z" fill="#ffd5a3"></path><path d="m112 64h16v16h-16z" fill="#ffdaa6"></path><path d="m128 64h16v16h-16z" fill="#fed59d"></path><path d="m144 64h16v16h-16z" fill="#4d3819"></path><path d="m160 64h16v16h-16z" fill="#614829"></path><path d="m176 64h16v16h-16z" fill="#ebc699"></path><path d="m192 64h16v16h-16z" fill="#604f3b"></path><path d="m208 64h16v16h-16z" fill="#4a3313"></path><path d="m224 64h16v16h-16z" fill="#72531d"></path><path d="m240 64h16v16h-16z" fill="#eece9f"></path><path d="m0 80h16v16h-16z" fill="#ffdfa2"></path><path d="m16 80h16v16h-16z" fill="#fed8a7"></path><path d="m32 80h16v16h-16z" fill="#f1c584"></path><path d="m48 80h16v16h-16z" fill="#fad591"></path><path d="m64 80h16v16h-16z" fill="#fed8a7"></path><path d="m80 80h16v16h-16z" fill="#654419"></path><path d="m96 80h16v16h-16z" fill="#ffdfae"></path><path d="m112 80h16v16h-16z" fill="#4e391a"></path><path d="m128 80h16v16h-16z" fill="#5f4725"></path><path d="m144 80h16v16h-16z" fill="#ffd8a4"></path><path d="m160 80h16v16h-16z" fill="#5b411c"></path><path d="m176 80h16v16h-16z" fill="#ffd7a4"></path><path d="m192 80h16v16h-16z" fill="#ffd69e"></path><path d="m208 80h16v16h-16z" fill="#fed6a3"></path><path d="m224 80h16v16h-16z" fill="#4e422c"></path><path d="m240 80h16v16h-16z" fill="#fed9af"></path><path d="m0 96h16v16h-16z" fill="#fedea3"></path><path d="m16 96h16v16h-16z" fill="#ffdaa6"></path><path d="m32 96h16v16h-16z" fill="#ffe2ac"></path><path d="m48 96h16v16h-16z" fill="#fee0aa"></path><path d="m64 96h16v16h-16z" fill="#ffdfac"></path><path d="m80 96h16v16h-16z" fill="#ffdfae"></path><path d="m96 96h16v16h-16z" fill="#775629"></path><path d="m112 96h16v16h-16z" fill="#49371f"></path><path d="m128 96h16v16h-16z" fill="#f4d2ac"></path><path d="m144 96h16v16h-16z" fill="#fed8a7"></path><path d="m160 96h16v16h-16z" fill="#fcd7a2"></path><path d="m176 96h16v16h-16z" fill="#ffd7a4"></path><path d="m192 96h16v16h-16z" fill="#ffd7a4"></path><path d="m208 96h16v16h-16z" fill="#5f5347"></path><path d="m224 96h16v16h-16z" fill="#ffe0aa"></path><path d="m240 96h16v16h-16z" fill="#ffd9ac"></path><path d="m0 112h16v16h-16z" fill="#ffdda3"></path><path d="m16 112h16v16h-16z" fill="#ffdaa6"></path><path d="m32 112h16v16h-16z" fill="#866d44"></path><path d="m48 112h16v16h-16z" fill="#fed7a0"></path><path d="m64 112h16v16h-16z" fill="#fedda8"></path><path d="m80 112h16v16h-16z" fill="#4f3b20"></path><path d="m96 112h16v16h-16z" fill="#5c4526"></path><path d="m112 112h16v16h-16z" fill="#836134"></path><path d="m128 112h16v16h-16z" fill="#fed8a7"></path><path d="m144 112h16v16h-16z" fill="#ffd7a4"></path><path d="m160 112h16v16h-16z" fill="#f9d4a8"></path><path d="m176 112h16v16h-16z" fill="#ffd9a8"></path><path d="m192 112h16v16h-16z" fill="#6a5a4b"></path><path d="m208 112h16v16h-16z" fill="#ffd7a4"></path><path d="m224 112h16v16h-16z" fill="#fed59d"></path><path d="m240 112h16v16h-16z" fill="#ffd9ac"></path><path d="m0 128h16v16h-16z" fill="#fdd099"></path><path d="m16 128h16v16h-16z" fill="#fdd099"></path><path d="m32 128h16v16h-16z" fill="#ffdaa6"></path><path d="m48 128h16v16h-16z" fill="#5b431d"></path><path d="m64 128h16v16h-16z" fill="#fcd7a2"></path><path d="m80 128h16v16h-16z" fill="#604929"></path><path d="m96 128h16v16h-16z" fill="#ffdaa6"></path><path d="m112 128h16v16h-16z" fill="#ffd6a2"></path><path d="m128 128h16v16h-16z" fill="#836134"></path><path d="m144 128h16v16h-16z" fill="#fdd8a3"></path><path d="m160 128h16v16h-16z" fill="#fed59f"></path><path d="m176 128h16v16h-16z" fill="#6b5d52"></path><path d="m192 128h16v16h-16z" fill="#ffd7a4"></path><path d="m208 128h16v16h-16z" fill="#ffd7a3"></path><path d="m224 128h16v16h-16z" fill="#fedcae"></path><path d="m240 128h16v16h-16z" fill="#fcdca3"></path><path d="m0 144h16v16h-16z" fill="#ffdaa6"></path><path d="m16 144h16v16h-16z" fill="#ffdaa6"></path><path d="m32 144h16v16h-16z" fill="#ffdaa6"></path><path d="m48 144h16v16h-16z" fill="#ffdaa6"></path><path d="m64 144h16v16h-16z" fill="#4d381b"></path><path d="m80 144h16v16h-16z" fill="#ffd8a4"></path><path d="m96 144h16v16h-16z" fill="#f8d3a7"></path><path d="m112 144h16v16h-16z" fill="#ffd7a4"></path><path d="m128 144h16v16h-16z" fill="#fedcac"></path><path d="m144 144h16v16h-16z" fill="#956719"></path><path d="m160 144h16v16h-16z" fill="#685c50"></path><path d="m176 144h16v16h-16z" fill="#ffd9a8"></path><path d="m192 144h16v16h-16z" fill="#ffd7a4"></path><path d="m208 144h16v16h-16z" fill="#fedead"></path><path d="m224 144h16v16h-16z" fill="#fedaaa"></path><path d="m240 144h16v16h-16z" fill="#ffdfac"></path><path d="m0 160h16v16h-16z" fill="#ffd8b7"></path><path d="m16 160h16v16h-16z" fill="#ffdaa6"></path><path d="m32 160h16v16h-16z" fill="#ffdaa6"></path><path d="m48 160h16v16h-16z" fill="#ffdaa6"></path><path d="m64 160h16v16h-16z" fill="#684e2b"></path><path d="m80 160h16v16h-16z" fill="#5b411c"></path><path d="m96 160h16v16h-16z" fill="#fdd49c"></path><path d="m112 160h16v16h-16z" fill="#ffdaa6"></path><path d="m128 160h16v16h-16z" fill="#ffddad"></path><path d="m144 160h16v16h-16z" fill="#5f5347"></path><path d="m160 160h16v16h-16z" fill="#96681a"></path><path d="m176 160h16v16h-16z" fill="#ffd7a4"></path><path d="m192 160h16v16h-16z" fill="#ffdaa6"></path><path d="m208 160h16v16h-16z" fill="#ffd69e"></path><path d="m224 160h16v16h-16z" fill="#fed59f"></path><path d="m240 160h16v16h-16z" fill="#efd49d"></path><path d="m0 176h16v16h-16z" fill="#f3d0aa"></path><path d="m16 176h16v16h-16z" fill="#fed8a7"></path><path d="m32 176h16v16h-16z" fill="#ffdaa6"></path><path d="m48 176h16v16h-16z" fill="#4d3614"></path><path d="m64 176h16v16h-16z" fill="#e9c595"></path><path d="m80 176h16v16h-16z" fill="#ffd7a4"></path><path d="m96 176h16v16h-16z" fill="#ffdaa6"></path><path d="m112 176h16v16h-16z" fill="#fed59f"></path><path d="m128 176h16v16h-16z" fill="#726052"></path><path d="m144 176h16v16h-16z" fill="#fed59d"></path><path d="m160 176h16v16h-16z" fill="#ffd7a4"></path><path d="m176 176h16v16h-16z" fill="#a47618"></path><path d="m192 176h16v16h-16z" fill="#57452d"></path><path d="m208 176h16v16h-16z" fill="#493514"></path><path d="m224 176h16v16h-16z" fill="#ffd7a3"></path><path d="m240 176h16v16h-16z" fill="#f7dca5"></path><path d="m0 192h16v16h-16z" fill="#f2c0c3"></path><path d="m16 192h16v16h-16z" fill="#fecfc7"></path><path d="m32 192h16v16h-16z" fill="#72531d"></path><path d="m48 192h16v16h-16z" fill="#72531d"></path><path d="m64 192h16v16h-16z" fill="#5e4e37"></path><path d="m80 192h16v16h-16z" fill="#ffd7a4"></path><path d="m96 192h16v16h-16z" fill="#ffd7a4"></path><path d="m112 192h16v16h-16z" fill="#6f6156"></path><path d="m128 192h16v16h-16z" fill="#ffd7a4"></path><path d="m144 192h16v16h-16z" fill="#ffd7a4"></path><path d="m160 192h16v16h-16z" fill="#fed9a5"></path><path d="m176 192h16v16h-16z" fill="#5f4a2f"></path><path d="m192 192h16v16h-16z" fill="#e5a30f"></path><path d="m208 192h16v16h-16z" fill="#57452d"></path><path d="m224 192h16v16h-16z" fill="#493514"></path><path d="m240 192h16v16h-16z" fill="#fedcd2"></path><path d="m0 208h16v16h-16z" fill="#906360"></path><path d="m16 208h16v16h-16z" fill="#fed2c9"></path><path d="m32 208h16v16h-16z" fill="#fedcac"></path><path d="m48 208h16v16h-16z" fill="#ffdaa6"></path><path d="m64 208h16v16h-16z" fill="#4a3313"></path><path d="m80 208h16v16h-16z" fill="#ffd7a3"></path><path d="m96 208h16v16h-16z" fill="#5d544d"></path><path d="m112 208h16v16h-16z" fill="#ffd7a4"></path><path d="m128 208h16v16h-16z" fill="#fed8a9"></path><path d="m144 208h16v16h-16z" fill="#fed8a9"></path><path d="m160 208h16v16h-16z" fill="#ffdfac"></path><path d="m176 208h16v16h-16z" fill="#493514"></path><path d="m192 208h16v16h-16z" fill="#59452d"></path><path d="m208 208h16v16h-16z" fill="#fee8af"></path><path d="m224 208h16v16h-16z" fill="#f6c7bd"></path><path d="m240 208h16v16h-16z" fill="#9e766e"></path><path d="m0 224h16v16h-16z" fill="#510f56"></path><path d="m16 224h16v16h-16z" fill="#a05ea5"></path><path d="m32 224h16v16h-16z" fill="#ffdcaa"></path><path d="m48 224h16v16h-16z" fill="#72531d"></path><path d="m64 224h16v16h-16z" fill="#5a4623"></path><path d="m80 224h16v16h-16z" fill="#4c4028"></path><path d="m96 224h16v16h-16z" fill="#ffd7a4"></path><path d="m112 224h16v16h-16z" fill="#ffd5a3"></path><path d="m128 224h16v16h-16z" fill="#fed6a3"></path><path d="m144 224h16v16h-16z" fill="#fed59f"></path><path d="m160 224h16v16h-16z" fill="#fedaaa"></path><path d="m176 224h16v16h-16z" fill="#fed6a3"></path><path d="m192 224h16v16h-16z" fill="#493514"></path><path d="m208 224h16v16h-16z" fill="#f6c7bd"></path><path d="m224 224h16v16h-16z" fill="#8a529d"></path><path d="m240 224h16v16h-16z" fill="#46105b"></path><path d="m16 240h16v16h-16z" fill="#531256"></path><path d="m32 240h16v16h-16z" fill="#9d6e66"></path><path d="m48 240h16v16h-16z" fill="#ffd9d0"></path><path d="m64 240h16v16h-16z" fill="#ffe0aa"></path><path d="m80 240h16v16h-16z" fill="#ffdba7"></path><path d="m96 240h16v16h-16z" fill="#fedaa8"></path><path d="m112 240h16v16h-16z" fill="#ffe2ac"></path><path d="m128 240h16v16h-16z" fill="#ffdfa4"></path><path d="m144 240h16v16h-16z" fill="#ffdb9f"></path><path d="m160 240h16v16h-16z" fill="#fdd8a3"></path><path d="m176 240h16v16h-16z" fill="#f6d19c"></path><path d="m192 240h16v16h-16z" fill="#f6c7bd"></path><path d="m208 240h16v16h-16z" fill="#9f7066"></path><path d="m224 240h16v16h-16z" fill="#4a125d"></path></svg>