<svg viewBox="0 0 256 256" xmlns="http://www.w3.org/2000/svg" version="1.1"><path d="m16 0h16v16h-16z" fill="#4e1365"/><path d="m32 0h16v16h-16z" fill="#9a6e6d"/><path d="m48 0h16v16h-16z" fill="#f1c5c4"/><path d="m64 0h16v16h-16z" fill="#eece9f"/><path d="m80 0h16v16h-16z" fill="#ffdeb1"/><path d="m96 0h16v16h-16z" fill="#ffdaa6"/><path d="m112 0h16v16h-16z" fill="#ffdca8"/><path d="m128 0h16v16h-16z" fill="#fed8a7"/><path d="m144 0h16v16h-16z" fill="#fedcac"/><path d="m160 0h16v16h-16z" fill="#ffd2a8"/><path d="m176 0h16v16h-16z" fill="#ffe0aa"/><path d="m192 0h16v16h-16z" fill="#f4c0c4"/><path d="m208 0h16v16h-16z" fill="#794549"/><path d="m224 0h16v16h-16z" fill="#4b0961"/><path d="m0 16h16v16h-16z" fill="#4b1062"/><path d="m16 16h16v16h-16z" fill="#5f2476"/><path d="m32 16h16v16h-16z" fill="#ffd9d8"/><path d="m48 16h16v16h-16z" fill="#ffd3d2"/><path d="m64 16h16v16h-16z" fill="#e3bb68"/><path d="m80 16h16v16h-16z" fill="#f7d6a9"/><path d="m96 16h16v16h-16z" fill="#fedda8"/><path d="m112 16h16v16h-16z" fill="#ffdca8"/><path d="m128 16h16v16h-16z" fill="#fcd4a3"/><path d="m144 16h16v16h-16z" fill="#fedcac"/><path d="m160 16h16v16h-16z" fill="#fed3a9"/><path d="m176 16h16v16h-16z" fill="#fddbad"/><path d="m192 16h16v16h-16z" fill="#ffc9cf"/><path d="m208 16h16v16h-16z" fill="#fecccd"/><path d="m224 16h16v16h-16z" fill="#7b3991"/><path d="m240 16h16v16h-16z" fill="#4b0963"/><path d="m0 32h16v16h-16z" fill="#a07469"/><path d="m16 32h16v16h-16z" fill="#f7c4cd"/><path d="m32 32h16v16h-16z" fill="#f7d6a9"/><path d="m48 32h16v16h-16z" fill="#e3bb68"/><path d="m64 32h16v16h-16z" fill="#dfb151"/><path d="m80 32h16v16h-16z" fill="#ffdca8"/><path d="m96 32h16v16h-16z" fill="#ffdca8"/><path d="m112 32h16v16h-16z" fill="#ffd5a2"/><path d="m128 32h16v16h-16z" fill="#ffd9a9"/><path d="m144 32h16v16h-16z" fill="#ffd9a3"/><path d="m160 32h16v16h-16z" fill="#ffd5a0"/><path d="m176 32h16v16h-16z" fill="#ffd6a1"/><path d="m192 32h16v16h-16z" fill="#fed7a2"/><path d="m208 32h16v16h-16z" fill="#ffd9d8"/><path d="m224 32h16v16h-16z" fill="#f7c4cd"/><path d="m240 32h16v16h-16z" fill="#936067"/><path d="m0 48h16v16h-16z" fill="#f4c8bf"/><path d="m16 48h16v16h-16z" fill="#ffd9d8"/><path d="m32 48h16v16h-16z" fill="#ffe2ae"/><path d="m48 48h16v16h-16z" fill="#e3bb68"/><path d="m64 48h16v16h-16z" fill="#dfb151"/><path d="m80 48h16v16h-16z" fill="#ffdca8"/><path d="m96 48h16v16h-16z" fill="#fcd4a3"/><path d="m112 48h16v16h-16z" fill="#fedcac"/><path d="m128 48h16v16h-16z" fill="#f0cb9c"/><path d="m144 48h16v16h-16z" fill="#fce7b4"/><path d="m160 48h16v16h-16z" fill="#815d22"/><path d="m176 48h16v16h-16z" fill="#956b28"/><path d="m192 48h16v16h-16z" fill="#956b28"/><path d="m208 48h16v16h-16z" fill="#feddad"/><path d="m224 48h16v16h-16z" fill="#f7c4cd"/><path d="m240 48h16v16h-16z" fill="#f7c4cd"/><path d="m0 64h16v16h-16z" fill="#efcd8e"/><path d="m16 64h16v16h-16z" fill="#ffd4a1"/><path d="m32 64h16v16h-16z" fill="#fedcac"/><path d="m48 64h16v16h-16z" fill="#dfb153"/><path d="m64 64h16v16h-16z" fill="#dfb151"/><path d="m80 64h16v16h-16z" fill="#d9a130"/><path d="m96 64h16v16h-16z" fill="#fedcac"/><path d="m112 64h16v16h-16z" fill="#ffd9a3"/><path d="m128 64h16v16h-16z" fill="#ffdaa4"/><path d="m144 64h16v16h-16z" fill="#815d22"/><path d="m160 64h16v16h-16z" fill="#815d22"/><path d="m176 64h16v16h-16z" fill="#815d22"/><path d="m192 64h16v16h-16z" fill="#71511e"/><path d="m208 64h16v16h-16z" fill="#71511e"/><path d="m224 64h16v16h-16z" fill="#ffd6a0"/><path d="m240 64h16v16h-16z" fill="#eece9f"/><path d="m0 80h16v16h-16z" fill="#ffdfa2"/><path d="m16 80h16v16h-16z" fill="#ffd8a8"/><path d="m32 80h16v16h-16z" fill="#73440e"/><path d="m48 80h16v16h-16z" fill="#dfb153"/><path d="m64 80h16v16h-16z" fill="#d9a130"/><path d="m80 80h16v16h-16z" fill="#d9a130"/><path d="m96 80h16v16h-16z" fill="#73440e"/><path d="m112 80h16v16h-16z" fill="#fedcac"/><path d="m128 80h16v16h-16z" fill="#815d22"/><path d="m144 80h16v16h-16z" fill="#815d22"/><path d="m160 80h16v16h-16z" fill="#71511e"/><path d="m176 80h16v16h-16z" fill="#71511e"/><path d="m192 80h16v16h-16z" fill="#71511e"/><path d="m208 80h16v16h-16z" fill="#795720"/><path d="m224 80h16v16h-16z" fill="#795720"/><path d="m240 80h16v16h-16z" fill="#ffdab0"/><path d="m0 96h16v16h-16z" fill="#fedea3"/><path d="m16 96h16v16h-16z" fill="#fadfb1"/><path d="m32 96h16v16h-16z" fill="#ffe2ae"/><path d="m48 96h16v16h-16z" fill="#7c5512"/><path d="m64 96h16v16h-16z" fill="#704f00"/><path d="m80 96h16v16h-16z" fill="#7e611b"/><path d="m96 96h16v16h-16z" fill="#ffd9a9"/><path d="m112 96h16v16h-16z" fill="#ffd9a3"/><path d="m128 96h16v16h-16z" fill="#956b28"/><path d="m144 96h16v16h-16z" fill="#71511e"/><path d="m160 96h16v16h-16z" fill="#795720"/><path d="m176 96h16v16h-16z" fill="#31220d"/><path d="m192 96h16v16h-16z" fill="#795720"/><path d="m208 96h16v16h-16z" fill="#795720"/><path d="m224 96h16v16h-16z" fill="#513a15"/><path d="m240 96h16v16h-16z" fill="#f8d7a4"/><path d="m0 112h16v16h-16z" fill="#ffdda3"/><path d="m16 112h16v16h-16z" fill="#f9e2ac"/><path d="m32 112h16v16h-16z" fill="#ffdbab"/><path d="m48 112h16v16h-16z" fill="#fcd4a3"/><path d="m64 112h16v16h-16z" fill="#9f3839"/><path d="m80 112h16v16h-16z" fill="#f1d2ac"/><path d="m96 112h16v16h-16z" fill="#fcd4a3"/><path d="m112 112h16v16h-16z" fill="#fedcac"/><path d="m128 112h16v16h-16z" fill="#956b28"/><path d="m144 112h16v16h-16z" fill="#71511e"/><path d="m160 112h16v16h-16z" fill="#795720"/><path d="m176 112h16v16h-16z" fill="#31220d"/><path d="m192 112h16v16h-16z" fill="#795720"/><path d="m208 112h16v16h-16z" fill="#5f4419"/><path d="m224 112h16v16h-16z" fill="#513a15"/><path d="m240 112h16v16h-16z" fill="#fbdbaa"/><path d="m0 128h16v16h-16z" fill="#ffe0b4"/><path d="m16 128h16v16h-16z" fill="#f7d6a9"/><path d="m32 128h16v16h-16z" fill="#fedda8"/><path d="m48 128h16v16h-16z" fill="#f1d2ac"/><path d="m64 128h16v16h-16z" fill="#5f4419"/><path d="m80 128h16v16h-16z" fill="#ffe2ae"/><path d="m96 128h16v16h-16z" fill="#ffd9a9"/><path d="m112 128h16v16h-16z" fill="#ffd9a3"/><path d="m128 128h16v16h-16z" fill="#956b28"/><path d="m144 128h16v16h-16z" fill="#71511e"/><path d="m160 128h16v16h-16z" fill="#31220d"/><path d="m176 128h16v16h-16z" fill="#31220d"/><path d="m192 128h16v16h-16z" fill="#31220d"/><path d="m208 128h16v16h-16z" fill="#513a15"/><path d="m224 128h16v16h-16z" fill="#513a15"/><path d="m240 128h16v16h-16z" fill="#fddda4"/><path d="m0 144h16v16h-16z" fill="#fbdaad"/><path d="m16 144h16v16h-16z" fill="#ffe2ae"/><path d="m32 144h16v16h-16z" fill="#ffdca8"/><path d="m48 144h16v16h-16z" fill="#ffd5a2"/><path d="m64 144h16v16h-16z" fill="#5f4419"/><path d="m80 144h16v16h-16z" fill="#ffdbab"/><path d="m96 144h16v16h-16z" fill="#fcd4a3"/><path d="m112 144h16v16h-16z" fill="#fcd4a3"/><path d="m128 144h16v16h-16z" fill="#956b28"/><path d="m144 144h16v16h-16z" fill="#795720"/><path d="m160 144h16v16h-16z" fill="#795720"/><path d="m176 144h16v16h-16z" fill="#31220d"/><path d="m192 144h16v16h-16z" fill="#5f4419"/><path d="m208 144h16v16h-16z" fill="#513a15"/><path d="m224 144h16v16h-16z" fill="#513a15"/><path d="m240 144h16v16h-16z" fill="#feebb1"/><path d="m0 160h16v16h-16z" fill="#ffd8b7"/><path d="m16 160h16v16h-16z" fill="#ffdbab"/><path d="m32 160h16v16h-16z" fill="#fcd4a3"/><path d="m48 160h16v16h-16z" fill="#fedcac"/><path d="m64 160h16v16h-16z" fill="#735000"/><path d="m80 160h16v16h-16z" fill="#f1d2ac"/><path d="m96 160h16v16h-16z" fill="#ffdca8"/><path d="m112 160h16v16h-16z" fill="#fcd4a3"/><path d="m128 160h16v16h-16z" fill="#795720"/><path d="m144 160h16v16h-16z" fill="#795720"/><path d="m160 160h16v16h-16z" fill="#795720"/><path d="m176 160h16v16h-16z" fill="#31220d"/><path d="m192 160h16v16h-16z" fill="#5f4419"/><path d="m208 160h16v16h-16z" fill="#513a15"/><path d="m224 160h16v16h-16z" fill="#513a15"/><path d="m240 160h16v16h-16z" fill="#efd49d"/><path d="m0 176h16v16h-16z" fill="#f4d1ab"/><path d="m16 176h16v16h-16z" fill="#ffd8a8"/><path d="m32 176h16v16h-16z" fill="#f7d6a9"/><path d="m48 176h16v16h-16z" fill="#fedda8"/><path d="m64 176h16v16h-16z" fill="#9f3839"/><path d="m80 176h16v16h-16z" fill="#fcd4a3"/><path d="m96 176h16v16h-16z" fill="#ffd5a2"/><path d="m112 176h16v16h-16z" fill="#ffd9a9"/><path d="m128 176h16v16h-16z" fill="#795720"/><path d="m144 176h16v16h-16z" fill="#513a15"/><path d="m160 176h16v16h-16z" fill="#5f4419"/><path d="m176 176h16v16h-16z" fill="#31220d"/><path d="m192 176h16v16h-16z" fill="#5f4419"/><path d="m208 176h16v16h-16z" fill="#513a15"/><path d="m224 176h16v16h-16z" fill="#513a15"/><path d="m240 176h16v16h-16z" fill="#f7dca5"/><path d="m0 192h16v16h-16z" fill="#f2c0c3"/><path d="m16 192h16v16h-16z" fill="#fecfc7"/><path d="m32 192h16v16h-16z" fill="#ffe2ae"/><path d="m48 192h16v16h-16z" fill="#f9cc94"/><path d="m64 192h16v16h-16z" fill="#735000"/><path d="m80 192h16v16h-16z" fill="#f9cc94"/><path d="m96 192h16v16h-16z" fill="#fedcac"/><path d="m112 192h16v16h-16z" fill="#f0cb9c"/><path d="m128 192h16v16h-16z" fill="#ffd8a5"/><path d="m144 192h16v16h-16z" fill="#513a15"/><path d="m160 192h16v16h-16z" fill="#5f4419"/><path d="m176 192h16v16h-16z" fill="#5f4419"/><path d="m192 192h16v16h-16z" fill="#513a15"/><path d="m208 192h16v16h-16z" fill="#513a15"/><path d="m224 192h16v16h-16z" fill="#ffd2ca"/><path d="m240 192h16v16h-16z" fill="#ffddd3"/><path d="m0 208h16v16h-16z" fill="#906360"/><path d="m16 208h16v16h-16z" fill="#ffd2ca"/><path d="m32 208h16v16h-16z" fill="#fecfc7"/><path d="m48 208h16v16h-16z" fill="#845a2a"/><path d="m64 208h16v16h-16z" fill="#5c2b00"/><path d="m80 208h16v16h-16z" fill="#5f4419"/><path d="m96 208h16v16h-16z" fill="#ffdcaa"/><path d="m112 208h16v16h-16z" fill="#ffdcaa"/><path d="m128 208h16v16h-16z" fill="#ffdcaa"/><path d="m144 208h16v16h-16z" fill="#ffdcaa"/><path d="m160 208h16v16h-16z" fill="#5f4419"/><path d="m176 208h16v16h-16z" fill="#513a15"/><path d="m192 208h16v16h-16z" fill="#513a15"/><path d="m208 208h16v16h-16z" fill="#ffd2ca"/><path d="m224 208h16v16h-16z" fill="#ffd9d8"/><path d="m240 208h16v16h-16z" fill="#9f776f"/><path d="m0 224h16v16h-16z" fill="#521057"/><path d="m16 224h16v16h-16z" fill="#a15fa6"/><path d="m32 224h16v16h-16z" fill="#ffd4cb"/><path d="m48 224h16v16h-16z" fill="#fecfc7"/><path d="m64 224h16v16h-16z" fill="#795720"/><path d="m80 224h16v16h-16z" fill="#f9cc94"/><path d="m96 224h16v16h-16z" fill="#fbd7a3"/><path d="m112 224h16v16h-16z" fill="#ffd99e"/><path d="m128 224h16v16h-16z" fill="#ffd99e"/><path d="m144 224h16v16h-16z" fill="#fcd59a"/><path d="m160 224h16v16h-16z" fill="#ffe0aa"/><path d="m176 224h16v16h-16z" fill="#ffdcaa"/><path d="m192 224h16v16h-16z" fill="#ffd0c6"/><path d="m208 224h16v16h-16z" fill="#ffd2ca"/><path d="m224 224h16v16h-16z" fill="#8b539e"/><path d="m240 224h16v16h-16z" fill="#46105b"/><path d="m16 240h16v16h-16z" fill="#541357"/><path d="m32 240h16v16h-16z" fill="#9d6e66"/><path d="m48 240h16v16h-16z" fill="#ffd9d0"/><path d="m64 240h16v16h-16z" fill="#ffe0aa"/><path d="m80 240h16v16h-16z" fill="#ffdba7"/><path d="m96 240h16v16h-16z" fill="#fedaa8"/><path d="m112 240h16v16h-16z" fill="#ffe2ac"/><path d="m128 240h16v16h-16z" fill="#ffdfa4"/><path d="m144 240h16v16h-16z" fill="#ffdb9f"/><path d="m160 240h16v16h-16z" fill="#fed9a4"/><path d="m176 240h16v16h-16z" fill="#f7d29d"/><path d="m192 240h16v16h-16z" fill="#f6c7bd"/><path d="m208 240h16v16h-16z" fill="#9f7066"/><path d="m224 240h16v16h-16z" fill="#4b135e"/></svg>