<svg viewBox="0 0 256 256" xmlns="http://www.w3.org/2000/svg" version="1.1"><path d="m16 0h16v16h-16z" fill="#4f4f4f"/><path d="m32 0h16v16h-16z" fill="#ab9a80"/><path d="m48 0h16v16h-16z" fill="#efcc9c"/><path d="m64 0h16v16h-16z" fill="#f0cc9e"/><path d="m80 0h16v16h-16z" fill="#ffdba5"/><path d="m96 0h16v16h-16z" fill="#ffddac"/><path d="m112 0h16v16h-16z" fill="#ffd9aa"/><path d="m128 0h16v16h-16z" fill="#ffd9a8"/><path d="m144 0h16v16h-16z" fill="#ffdcac"/><path d="m160 0h16v16h-16z" fill="#ffdaa8"/><path d="m176 0h16v16h-16z" fill="#f0cc9f"/><path d="m192 0h16v16h-16z" fill="#f0cc9c"/><path d="m208 0h16v16h-16z" fill="#a89479"/><path d="m224 0h16v16h-16z" fill="#494949"/><path d="m0 16h16v16h-16z" fill="#494949"/><path d="m16 16h16v16h-16z" fill="#a99d80"/><path d="m32 16h16v16h-16z" fill="#fadfab"/><path d="m48 16h16v16h-16z" fill="#ffddaa"/><path d="m64 16h16v16h-16z" fill="#ffdca7"/><path d="m80 16h16v16h-16z" fill="#ffd7a3"/><path d="m96 16h16v16h-16z" fill="#ffd8a6"/><path d="m112 16h16v16h-16z" fill="#ffd8a8"/><path d="m128 16h16v16h-16z" fill="#ffd8a7"/><path d="m144 16h16v16h-16z" fill="#ffd9a5"/><path d="m160 16h16v16h-16z" fill="#ffd9a5"/><path d="m176 16h16v16h-16z" fill="#ffd9a7"/><path d="m192 16h16v16h-16z" fill="#ffd9a7"/><path d="m208 16h16v16h-16z" fill="#fad2a0"/><path d="m224 16h16v16h-16z" fill="#ad9678"/><path d="m240 16h16v16h-16z" fill="#4f4f4f"/><path d="m0 32h16v16h-16z" fill="#a79980"/><path d="m16 32h16v16h-16z" fill="#fadca8"/><path d="m32 32h16v16h-16z" fill="#fce7b4"/><path d="m48 32h16v16h-16z" fill="#fee4ac"/><path d="m64 32h16v16h-16z" fill="#ffe2ae"/><path d="m80 32h16v16h-16z" fill="#ffe2ae"/><path d="m96 32h16v16h-16z" fill="#ffdca8"/><path d="m112 32h16v16h-16z" fill="#ffd5a2"/><path d="m128 32h16v16h-16z" fill="#ffd9a9"/><path d="m144 32h16v16h-16z" fill="#ffd9a3"/><path d="m160 32h16v16h-16z" fill="#543c16"/><path d="m176 32h16v16h-16z" fill="#5f4419"/><path d="m192 32h16v16h-16z" fill="#fed7a2"/><path d="m208 32h16v16h-16z" fill="#82653c"/><path d="m224 32h16v16h-16z" fill="#fad8ab"/><path d="m240 32h16v16h-16z" fill="#ab987e"/><path d="m0 48h16v16h-16z" fill="#f0d09e"/><path d="m16 48h16v16h-16z" fill="#ffdaa4"/><path d="m32 48h16v16h-16z" fill="#fedbaa"/><path d="m48 48h16v16h-16z" fill="#ffdbab"/><path d="m64 48h16v16h-16z" fill="#ffdcac"/><path d="m80 48h16v16h-16z" fill="#ffdbab"/><path d="m96 48h16v16h-16z" fill="#ffd8a4"/><path d="m112 48h16v16h-16z" fill="#ffdcaa"/><path d="m128 48h16v16h-16z" fill="#ffdcab"/><path d="m144 48h16v16h-16z" fill="#ffdbaa"/><path d="m160 48h16v16h-16z" fill="#4f3814"/><path d="m176 48h16v16h-16z" fill="#5f4419"/><path d="m192 48h16v16h-16z" fill="#ffdbad"/><path d="m208 48h16v16h-16z" fill="#feddad"/><path d="m224 48h16v16h-16z" fill="#ffdbab"/><path d="m240 48h16v16h-16z" fill="#efcc9d"/><path d="m0 64h16v16h-16z" fill="#f0cd9f"/><path d="m16 64h16v16h-16z" fill="#ffd4a1"/><path d="m32 64h16v16h-16z" fill="#ffd3a0"/><path d="m48 64h16v16h-16z" fill="#ffd6a4"/><path d="m64 64h16v16h-16z" fill="#ffdaa9"/><path d="m80 64h16v16h-16z" fill="#ffd6a4"/><path d="m96 64h16v16h-16z" fill="#ffd6a3"/><path d="m112 64h16v16h-16z" fill="#ffd9a6"/><path d="m128 64h16v16h-16z" fill="#ffddad"/><path d="m144 64h16v16h-16z" fill="#ffd8a4"/><path d="m160 64h16v16h-16z" fill="#4d3614"/><path d="m176 64h16v16h-16z" fill="#5f4419"/><path d="m192 64h16v16h-16z" fill="#5f4419"/><path d="m208 64h16v16h-16z" fill="#5f4419"/><path d="m224 64h16v16h-16z" fill="#ffd6a0"/><path d="m240 64h16v16h-16z" fill="#f0cb9c"/><path d="m0 80h16v16h-16z" fill="#ffddad"/><path d="m16 80h16v16h-16z" fill="#ffd8a8"/><path d="m32 80h16v16h-16z" fill="#ffd6a1"/><path d="m48 80h16v16h-16z" fill="#ffd8a5"/><path d="m64 80h16v16h-16z" fill="#ffd8a7"/><path d="m80 80h16v16h-16z" fill="#ffd8a5"/><path d="m96 80h16v16h-16z" fill="#ffd6a3"/><path d="m112 80h16v16h-16z" fill="#ffd69f"/><path d="m128 80h16v16h-16z" fill="#ffd8a4"/><path d="m144 80h16v16h-16z" fill="#ffd59e"/><path d="m160 80h16v16h-16z" fill="#4d3614"/><path d="m176 80h16v16h-16z" fill="#4d3614"/><path d="m192 80h16v16h-16z" fill="#4f3814"/><path d="m208 80h16v16h-16z" fill="#543c16"/><path d="m224 80h16v16h-16z" fill="#ffd7a3"/><path d="m240 80h16v16h-16z" fill="#ffd9a8"/><path d="m0 96h16v16h-16z" fill="#f7ddae"/><path d="m16 96h16v16h-16z" fill="#fadfb1"/><path d="m32 96h16v16h-16z" fill="#ffdfad"/><path d="m48 96h16v16h-16z" fill="#ffdba5"/><path d="m64 96h16v16h-16z" fill="#ffd8a6"/><path d="m80 96h16v16h-16z" fill="#ffdba5"/><path d="m96 96h16v16h-16z" fill="#ffddac"/><path d="m112 96h16v16h-16z" fill="#ffd9aa"/><path d="m128 96h16v16h-16z" fill="#ffd9a8"/><path d="m144 96h16v16h-16z" fill="#543c16"/><path d="m160 96h16v16h-16z" fill="#ffdaa8"/><path d="m176 96h16v16h-16z" fill="#ffd8a7"/><path d="m192 96h16v16h-16z" fill="#ffd8a5"/><path d="m208 96h16v16h-16z" fill="#ffd9a7"/><path d="m224 96h16v16h-16z" fill="#ffe0ab"/><path d="m240 96h16v16h-16z" fill="#fbe3b3"/><path d="m0 112h16v16h-16z" fill="#f7e0af"/><path d="m16 112h16v16h-16z" fill="#f9e2ac"/><path d="m32 112h16v16h-16z" fill="#ffe3ad"/><path d="m48 112h16v16h-16z" fill="#ffd7a3"/><path d="m64 112h16v16h-16z" fill="#ffdca7"/><path d="m80 112h16v16h-16z" fill="#ffd7a3"/><path d="m96 112h16v16h-16z" fill="#ffd8a6"/><path d="m112 112h16v16h-16z" fill="#ffd8a8"/><path d="m128 112h16v16h-16z" fill="#634b26"/><path d="m144 112h16v16h-16z" fill="#ffd9a5"/><path d="m160 112h16v16h-16z" fill="#ffd9a5"/><path d="m176 112h16v16h-16z" fill="#ffd9a7"/><path d="m192 112h16v16h-16z" fill="#ffd9a7"/><path d="m208 112h16v16h-16z" fill="#ffd6a3"/><path d="m224 112h16v16h-16z" fill="#ffd59e"/><path d="m240 112h16v16h-16z" fill="#ffd9a4"/><path d="m0 128h16v16h-16z" fill="#fde2b3"/><path d="m16 128h16v16h-16z" fill="#ffe1ab"/><path d="m32 128h16v16h-16z" fill="#fce7b4"/><path d="m48 128h16v16h-16z" fill="#ffe2ae"/><path d="m64 128h16v16h-16z" fill="#ffe2ae"/><path d="m80 128h16v16h-16z" fill="#ffe2ae"/><path d="m96 128h16v16h-16z" fill="#ffdca8"/><path d="m112 128h16v16h-16z" fill="#6d5430"/><path d="m128 128h16v16h-16z" fill="#ffd9a9"/><path d="m144 128h16v16h-16z" fill="#ffd9a3"/><path d="m160 128h16v16h-16z" fill="#ffd5a0"/><path d="m176 128h16v16h-16z" fill="#ffd6a1"/><path d="m192 128h16v16h-16z" fill="#ffd8a3"/><path d="m208 128h16v16h-16z" fill="#ffd7a3"/><path d="m224 128h16v16h-16z" fill="#ffdcad"/><path d="m240 128h16v16h-16z" fill="#ffdaa9"/><path d="m0 144h16v16h-16z" fill="#ffdca7"/><path d="m16 144h16v16h-16z" fill="#ffdaa4"/><path d="m32 144h16v16h-16z" fill="#ffdcab"/><path d="m48 144h16v16h-16z" fill="#ffdbab"/><path d="m64 144h16v16h-16z" fill="#ffdcac"/><path d="m80 144h16v16h-16z" fill="#ffdbab"/><path d="m96 144h16v16h-16z" fill="#6d5430"/><path d="m112 144h16v16h-16z" fill="#ffdcaa"/><path d="m128 144h16v16h-16z" fill="#ffdcab"/><path d="m144 144h16v16h-16z" fill="#ffdbaa"/><path d="m160 144h16v16h-16z" fill="#ffd8a6"/><path d="m176 144h16v16h-16z" fill="#ffdaa8"/><path d="m192 144h16v16h-16z" fill="#ffdbad"/><path d="m208 144h16v16h-16z" fill="#ffdeae"/><path d="m224 144h16v16h-16z" fill="#ffdbab"/><path d="m240 144h16v16h-16z" fill="#ffd9a6"/><path d="m0 160h16v16h-16z" fill="#ffd9a7"/><path d="m16 160h16v16h-16z" fill="#ffd4a1"/><path d="m32 160h16v16h-16z" fill="#ffd3a0"/><path d="m48 160h16v16h-16z" fill="#ffd6a4"/><path d="m64 160h16v16h-16z" fill="#ffdaa9"/><path d="m80 160h16v16h-16z" fill="#6e5532"/><path d="m96 160h16v16h-16z" fill="#ffd6a3"/><path d="m112 160h16v16h-16z" fill="#ffd9a6"/><path d="m128 160h16v16h-16z" fill="#ffddad"/><path d="m144 160h16v16h-16z" fill="#ffd8a4"/><path d="m160 160h16v16h-16z" fill="#ffd4a0"/><path d="m176 160h16v16h-16z" fill="#ffdaa8"/><path d="m192 160h16v16h-16z" fill="#ffd9a6"/><path d="m208 160h16v16h-16z" fill="#ffd69e"/><path d="m224 160h16v16h-16z" fill="#ffd6a0"/><path d="m240 160h16v16h-16z" fill="#ffd7a4"/><path d="m0 176h16v16h-16z" fill="#f0d1a4"/><path d="m16 176h16v16h-16z" fill="#ffd8a8"/><path d="m32 176h16v16h-16z" fill="#ffd6a1"/><path d="m48 176h16v16h-16z" fill="#ffd8a5"/><path d="m64 176h16v16h-16z" fill="#634b26"/><path d="m80 176h16v16h-16z" fill="#ffd8a5"/><path d="m96 176h16v16h-16z" fill="#ffd6a3"/><path d="m112 176h16v16h-16z" fill="#ffd69f"/><path d="m128 176h16v16h-16z" fill="#ffd8a4"/><path d="m144 176h16v16h-16z" fill="#ffd59e"/><path d="m160 176h16v16h-16z" fill="#ffd6a3"/><path d="m176 176h16v16h-16z" fill="#ffd49f"/><path d="m192 176h16v16h-16z" fill="#ffd79e"/><path d="m208 176h16v16h-16z" fill="#ffd7a4"/><path d="m224 176h16v16h-16z" fill="#ffd7a3"/><path d="m240 176h16v16h-16z" fill="#ffd9a8"/><path d="m0 192h16v16h-16z" fill="#efcc9e"/><path d="m16 192h16v16h-16z" fill="#ffdba9"/><path d="m32 192h16v16h-16z" fill="#fedaa6"/><path d="m48 192h16v16h-16z" fill="#543c16"/><path d="m64 192h16v16h-16z" fill="#ffd8a6"/><path d="m80 192h16v16h-16z" fill="#ffd9a8"/><path d="m96 192h16v16h-16z" fill="#ffd8a5"/><path d="m112 192h16v16h-16z" fill="#ffddae"/><path d="m128 192h16v16h-16z" fill="#ffdaac"/><path d="m144 192h16v16h-16z" fill="#ffdcaa"/><path d="m160 192h16v16h-16z" fill="#ffd9a5"/><path d="m176 192h16v16h-16z" fill="#ffdcab"/><path d="m192 192h16v16h-16z" fill="#ffe4b0"/><path d="m208 192h16v16h-16z" fill="#feddae"/><path d="m224 192h16v16h-16z" fill="#ffe7b4"/><path d="m240 192h16v16h-16z" fill="#fee6ad"/><path d="m0 208h16v16h-16z" fill="#ab9b82"/><path d="m16 208h16v16h-16z" fill="#fad4a3"/><path d="m32 208h16v16h-16z" fill="#5f4419"/><path d="m48 208h16v16h-16z" fill="#fed7a4"/><path d="m64 208h16v16h-16z" fill="#ffe0ad"/><path d="m80 208h16v16h-16z" fill="#ffe3ad"/><path d="m96 208h16v16h-16z" fill="#ffdcaa"/><path d="m112 208h16v16h-16z" fill="#ffdcaa"/><path d="m128 208h16v16h-16z" fill="#ffd9aa"/><path d="m144 208h16v16h-16z" fill="#ffd9a9"/><path d="m160 208h16v16h-16z" fill="#ffe0ad"/><path d="m176 208h16v16h-16z" fill="#ffe2ad"/><path d="m192 208h16v16h-16z" fill="#fee1ae"/><path d="m208 208h16v16h-16z" fill="#ffe8af"/><path d="m224 208h16v16h-16z" fill="#f9e6b2"/><path d="m240 208h16v16h-16z" fill="#a6987b"/><path d="m0 224h16v16h-16z" fill="#505050"/><path d="m16 224h16v16h-16z" fill="#ad997e"/><path d="m32 224h16v16h-16z" fill="#f9d3a3"/><path d="m48 224h16v16h-16z" fill="#ffdaa9"/><path d="m64 224h16v16h-16z" fill="#ffd6a5"/><path d="m80 224h16v16h-16z" fill="#ffd9a8"/><path d="m96 224h16v16h-16z" fill="#ffd5a3"/><path d="m112 224h16v16h-16z" fill="#ffd5a3"/><path d="m128 224h16v16h-16z" fill="#ffd7a4"/><path d="m144 224h16v16h-16z" fill="#ffd5a0"/><path d="m160 224h16v16h-16z" fill="#ffdaaa"/><path d="m176 224h16v16h-16z" fill="#ffd7a4"/><path d="m192 224h16v16h-16z" fill="#ffdaa9"/><path d="m208 224h16v16h-16z" fill="#fad7a7"/><path d="m224 224h16v16h-16z" fill="#ad977c"/><path d="m240 224h16v16h-16z" fill="#494949"/><path d="m16 240h16v16h-16z" fill="#4b4b4b"/><path d="m32 240h16v16h-16z" fill="#a8967c"/><path d="m48 240h16v16h-16z" fill="#f0ce9f"/><path d="m64 240h16v16h-16z" fill="#f0d0a5"/><path d="m80 240h16v16h-16z" fill="#ffdba9"/><path d="m96 240h16v16h-16z" fill="#ffd9a7"/><path d="m112 240h16v16h-16z" fill="#ffddad"/><path d="m128 240h16v16h-16z" fill="#ffdcac"/><path d="m144 240h16v16h-16z" fill="#ffd9a9"/><path d="m160 240h16v16h-16z" fill="#ffd9a5"/><path d="m176 240h16v16h-16z" fill="#f0d3a7"/><path d="m192 240h16v16h-16z" fill="#efcfa0"/><path d="m208 240h16v16h-16z" fill="#ab977c"/><path d="m224 240h16v16h-16z" fill="#4f4f4f"/></svg>